<svg width="54" height="54" viewBox="0 0 54 54" fill="none" xmlns="http://www.w3.org/2000/svg">
<rect width="54" height="54" rx="8" fill="#F07C00"/>
<path d="M17.335 25.3368C17.0217 25.0471 17.1919 24.5234 17.6156 24.4732L23.6191 23.7611C23.7918 23.7406 23.9418 23.6322 24.0146 23.4742L26.5469 17.9845C26.7256 17.597 27.2764 17.597 27.4551 17.9844L29.9873 23.4741C30.0601 23.632 30.2092 23.7408 30.3818 23.7612L36.3857 24.4732C36.8094 24.5234 36.9791 25.0472 36.6659 25.3369L32.2278 29.4419C32.1001 29.56 32.0433 29.7357 32.0771 29.9063L33.255 35.8359C33.3382 36.2544 32.8928 36.5787 32.5205 36.3703L27.2451 33.4166C27.0934 33.3317 26.9091 33.3321 26.7573 33.417L21.4814 36.3695C21.1091 36.5779 20.6629 36.2544 20.7461 35.8359L21.9241 29.9066C21.958 29.7361 21.9013 29.5599 21.7737 29.4419L17.335 25.3368Z" stroke="white" stroke-width="2" stroke-linecap="round" stroke-linejoin="round"/>
</svg>
