<svg width="54" height="54" viewBox="0 0 54 54" fill="none" xmlns="http://www.w3.org/2000/svg">
<rect width="54" height="54" rx="8" fill="#F07C00"/>
<path d="M35 20.6001C35 20.04 34.9996 19.7598 34.8906 19.5459C34.7948 19.3577 34.6423 19.2049 34.4542 19.109C34.2403 19 33.9597 19 33.3996 19H20.5996C20.0396 19 19.7598 19 19.5459 19.109C19.3577 19.2049 19.2049 19.3577 19.109 19.5459C19 19.7598 19 20.04 19 20.6001V21.3374C19 21.5819 19 21.7043 19.0276 21.8194C19.0521 21.9215 19.0926 22.0189 19.1475 22.1084C19.2093 22.2093 19.2959 22.2959 19.4688 22.4688L24.5315 27.5315C24.7044 27.7044 24.7904 27.7904 24.8523 27.8914C24.9071 27.9808 24.9482 28.0786 24.9727 28.1807C25 28.2946 25 28.4155 25 28.6552V33.411C25 34.2682 25 34.6971 25.1805 34.9552C25.3382 35.1806 25.5814 35.331 25.8535 35.3712C26.1651 35.4172 26.5487 35.2257 27.3154 34.8424L28.1154 34.4424C28.4365 34.2819 28.5966 34.2013 28.7139 34.0815C28.8176 33.9756 28.897 33.8485 28.9453 33.7084C29 33.5499 29 33.37 29 33.011V28.6626C29 28.418 29 28.2958 29.0276 28.1807C29.0521 28.0786 29.0926 27.9808 29.1475 27.8914C29.2089 27.7911 29.2947 27.7053 29.4653 27.5347L29.4688 27.5315L34.5315 22.4688C34.7044 22.2958 34.7904 22.2093 34.8523 22.1084C34.9071 22.0189 34.9482 21.9215 34.9727 21.8194C35 21.7055 35 21.5844 35 21.3448V20.6001Z" stroke="white" stroke-width="2" stroke-linecap="round" stroke-linejoin="round"/>
</svg>
