<svg width="54" height="54" viewBox="0 0 54 54" fill="none" xmlns="http://www.w3.org/2000/svg">
<rect width="54" height="54" rx="7" fill="#F07C00"/>
<path d="M17.0701 19.5999C17.8701 16.1399 23.0801 16.1399 23.8701 19.5999C24.3401 21.6299 23.0501 23.3499 21.9301 24.4199C21.1101 25.1999 19.8201 25.1899 19.0001 24.4199C17.8901 23.3499 16.6001 21.6299 17.0701 19.5999Z" stroke="white" stroke-width="1.5"/>
<path d="M30.07 31.5999C30.87 28.1399 36.11 28.1399 36.91 31.5999C37.38 33.6299 36.09 35.3499 34.96 36.4199C34.14 37.1999 32.84 37.1899 32.02 36.4199C30.89 35.3499 29.6 33.6299 30.07 31.5999Z" stroke="white" stroke-width="1.5"/>
<path d="M27.0002 20H29.6802C31.5302 20 32.3902 22.29 31.0002 23.51L23.0102 30.5C21.6202 31.71 22.4802 34 24.3202 34H27.0002" stroke="white" stroke-width="1.5" stroke-linecap="round" stroke-linejoin="round"/>
<path d="M20.4862 20.5H20.4978" stroke="white" stroke-width="2" stroke-linecap="round" stroke-linejoin="round"/>
<path d="M33.4862 32.5H33.4978" stroke="white" stroke-width="2" stroke-linecap="round" stroke-linejoin="round"/>
</svg>
