<svg width="24" height="24" viewBox="0 0 24 24" fill="none" xmlns="http://www.w3.org/2000/svg">
<path d="M12 2C14.6515 2 17.1969 3.05408 19.0703 4.92871C20.9453 6.8034 22 9.34891 22 12C22 14.6511 20.9453 17.1966 19.0703 19.0713C17.1969 20.9459 14.6515 22 12 22C9.34848 22 6.80312 20.9459 4.92969 19.0713C3.05469 17.1966 2 14.6511 2 12C2.00052 9.34778 3.05432 6.80414 4.92969 4.92871C6.80312 3.05408 9.34848 2 12 2ZM16.0889 8.01953C15.7123 8.02636 15.1353 8.22677 12.3574 9.38184C11.3855 9.78639 9.44187 10.6246 6.52637 11.8945C6.05326 12.0827 5.80425 12.2664 5.78223 12.4463C5.73848 12.7921 6.23735 12.8999 6.8623 13.1035C7.3732 13.2694 8.06072 13.464 8.41699 13.4717C8.74196 13.4787 9.10258 13.3443 9.50098 13.0703C12.2205 11.2354 13.6256 10.3068 13.7197 10.2832C13.7822 10.2691 13.8689 10.2507 13.9268 10.3027C13.9859 10.3545 13.9799 10.4528 13.9736 10.4795C13.9252 10.6905 11.3671 13.0166 11.2188 13.1709C10.6563 13.7553 10.0156 14.1131 11.0029 14.7637C11.8576 15.3266 12.3547 15.6857 13.2344 16.2627C13.7968 16.6312 14.2373 17.0689 14.8184 17.0156C15.0855 16.9911 15.3619 16.7394 15.501 15.9902C15.8322 14.2193 16.4837 10.3823 16.6338 8.80078C16.6478 8.66251 16.6307 8.48519 16.6182 8.40723C16.6041 8.32934 16.5766 8.21777 16.4766 8.13574C16.3562 8.03852 16.1717 8.0182 16.0889 8.01953Z" fill="white"/>
</svg>
