<svg width="24" height="24" viewBox="0 0 24 24" fill="none" xmlns="http://www.w3.org/2000/svg">
<path d="M12 2C17.5228 2 22 6.47715 22 12C22 17.5228 17.5228 22 12 22C10.3122 22 8.71908 21.5813 7.32227 20.8408C6.97652 20.6575 6.63697 20.6199 6.36719 20.6992L4.66113 21.2012C3.52249 21.5356 2.46437 20.4775 2.79883 19.3389L3.30078 17.6328C3.38008 17.363 3.34245 17.0235 3.15918 16.6777C2.41874 15.2809 2 13.6878 2 12C2 6.47715 6.47715 2 12 2ZM9.78516 7.25879C9.57853 7.10821 9.31732 7.09113 9.10156 7.18359C8.30053 7.52691 7.70556 8.22484 7.49414 9.07031L7.4873 9.10059C7.44943 9.25213 7.41672 9.43106 7.42383 9.62598C7.44892 10.3079 7.716 12.2393 9.73828 14.2617C11.7608 16.2842 13.6921 16.5511 14.374 16.5762C14.5692 16.5834 14.7487 16.5516 14.9004 16.5137L14.9346 16.5049C15.7769 16.2943 16.4724 15.7014 16.8145 14.9033C16.9108 14.6784 16.8871 14.4081 16.7256 14.2012C16.1925 13.5185 15.4768 13.0246 14.8408 12.5859C14.7981 12.5565 14.7558 12.5271 14.7139 12.498C14.4012 12.2816 13.9706 12.3487 13.7402 12.6553L13.1396 13.5703C13.073 13.6717 12.9403 13.7066 12.835 13.6465C12.4285 13.414 11.8356 13.0172 11.4092 12.5908C10.9833 12.1649 10.6112 11.599 10.4023 11.2188C10.3475 11.1189 10.3782 10.9957 10.4697 10.9277L11.3926 10.2422C11.668 10.0038 11.7164 9.59835 11.5137 9.30176C11.4696 9.23722 11.4246 9.17105 11.3789 9.10352C10.9597 8.48399 10.4674 7.75642 9.78516 7.25879Z" fill="white"/>
</svg>
