<svg width="54" height="54" viewBox="0 0 54 54" fill="none" xmlns="http://www.w3.org/2000/svg">
<rect width="54" height="54" rx="8" fill="#F07C00"/>
<path d="M24 36H30M27 18C23.6863 18 21 20.6863 21 24C21 25.2145 21.3608 26.3447 21.9812 27.2893C22.9351 28.7418 23.4116 29.4676 23.4735 29.5761C24.0243 30.541 23.9229 30.2007 23.9922 31.3096C24 31.4342 24 31.6229 24 32C24 32.5523 24.4477 33 25 33L29 33C29.5523 33 30 32.5523 30 32C30 31.6229 30 31.4342 30.0078 31.3096C30.0771 30.2007 29.9751 30.541 30.5259 29.5761C30.5878 29.4676 31.0651 28.7418 32.019 27.2893C32.6394 26.3447 33.0002 25.2145 33.0002 24C33.0002 20.6863 30.3137 18 27 18Z" stroke="white" stroke-width="2" stroke-linecap="round" stroke-linejoin="round"/>
</svg>
